<svg xmlns="http://www.w3.org/2000/svg" width="74" height="74" viewBox="0 0 74 74"><defs><linearGradient id="t27xc" x1="37" x2="37" y1="53" y2="21" gradientUnits="userSpaceOnUse"><stop offset="0" stop-color="#f0c542"/><stop offset=".51" stop-color="#f0c542" stop-opacity=".9"/><stop offset=".52" stop-color="#f0c542" stop-opacity=".9"/><stop offset="1" stop-color="#f8d97f"/></linearGradient><filter id="t27xa" width="200%" height="200%" x="-50%" y="-50%"><feGaussianBlur in="SourceGraphic" result="FeGaussianBlur1038Out" stdDeviation="10.5 10.5"/></filter><mask id="t27xb"><path fill="#fff" d="M37 21c8.836 0 16 7.163 16 16 0 8.836-7.164 16-16 16-8.837 0-16-7.164-16-16 0-8.837 7.163-16 16-16z"/></mask></defs><g><g><g><path fill="#fff8de" fill-opacity=".36" d="M0 74V0h74v74zm21-37c0 8.836 7.163 16 16 16 8.836 0 16-7.164 16-16 0-8.837-7.164-16-16-16-8.837 0-16 7.163-16 16z" filter="url(#t27xa)" mask="url(&quot;#t27xb&quot;)"/><path fill="#fff" d="M37 21c8.836 0 16 7.163 16 16 0 8.836-7.164 16-16 16-8.837 0-16-7.164-16-16 0-8.837 7.163-16 16-16z"/><path fill="url(#t27xc)" d="M37 21c8.836 0 16 7.163 16 16 0 8.836-7.164 16-16 16-8.837 0-16-7.164-16-16 0-8.837 7.163-16 16-16z"/><path fill="#fff8de" fill-opacity=".36" d="M0 74V0h74v74zm21-37c0 8.836 7.163 16 16 16 8.836 0 16-7.164 16-16 0-8.837-7.164-16-16-16-8.837 0-16 7.163-16 16z" filter="url(#t27xa)" mask="url(&quot;#t27xb&quot;)"/></g><g><g><text dominant-baseline="text-before-edge" style="line-height:34px" fill="#fff" font-family="'FuturaPT-Book','FuturaPT-Book'" font-size="24" font-style="none" font-weight="400" transform="translate(32 31)"><tspan style="font-kerning:normal">+</tspan></text></g></g></g></g></svg>